<svg width="124" height="22" viewBox="0 0 124 22" fill="none" xmlns="http://www.w3.org/2000/svg">
<path d="M11.8047 16.6094L0.109375 12.1094V9.27344L11.8047 4.77344V7.70312L3.01562 10.5859V10.7969L11.8047 13.6797V16.6094ZM15.0391 19V2.35938H17.8633V19H15.0391ZM15.0391 19V16.3984H26.2891V19H15.0391ZM32.207 19L27.7539 2.35938H30.6719L34.2695 16.5391H34.4805L38.0781 2.35938H40.9961L36.543 19H32.207ZM43.1641 19V2.35938H45.9883V19H43.1641ZM43.1641 19V16.3984H54.4141V19H43.1641ZM56.6406 21.625V19H68.3594V21.625H56.6406ZM71.1953 19V16.0234C73.6875 14.6719 75.5469 13.2656 76.7734 11.8047C78.0078 10.3359 78.625 8.82031 78.625 7.25781C78.625 6.42188 78.418 5.79687 78.0039 5.38281C77.5977 4.96094 76.9766 4.75 76.1406 4.75C75.4922 4.75 74.8125 4.93359 74.1016 5.30078C73.3906 5.66797 72.7812 6.15625 72.2734 6.76562L70.5391 4.86719C71.1016 4.03906 71.8984 3.375 72.9297 2.875C73.9688 2.375 75.0547 2.125 76.1875 2.125C77.9844 2.125 79.3281 2.54297 80.2188 3.37891C81.1094 4.20703 81.5547 5.46094 81.5547 7.14062C81.5547 8.75781 81.0625 10.3086 80.0781 11.793C79.1016 13.2695 77.6133 14.6914 75.6133 16.0586V19H71.1953ZM71.8984 19V16.4688H82.2578V19H71.8984ZM88.7852 19L94.1523 2.35938H97.2344L91.75 19H88.7852ZM84.7891 8.54688V2.71094H87.6484V8.54688H84.7891ZM84.7891 4.96094V2.35938H97.2344L95.4531 4.96094H84.7891ZM112.281 16.6094V13.6797L120.074 10.8555V10.5273L108.977 6.25V3.34375L123.496 9.27344V12.1094L112.281 16.6094ZM100.164 21.2266L109.375 0.132812H112.305L103.082 21.2266H100.164Z" fill="white"/>
</svg>
