<svg width="251" height="22" viewBox="0 0 251 22" fill="none" xmlns="http://www.w3.org/2000/svg">
<path d="M12.0234 16.6094L0.328125 12.1094V9.27344L12.0234 4.77344V7.70312L3.23438 10.5859V10.7969L12.0234 13.6797V16.6094ZM239.062 16.6094V13.6797L246.855 10.8555V10.5273L235.758 6.25V3.34375L250.277 9.27344V12.1094L239.062 16.6094ZM226.945 21.2266L236.156 0.132812H239.086L229.863 21.2266H226.945Z" fill="#4CC2FE"/>
<path d="M32.4258 19L27.9727 2.35938H30.8906L34.4883 16.5391H34.6992L38.2969 2.35938H41.2148L36.7617 19H32.4258ZM48.0352 19V7.28125H50.918V19H48.0352ZM43.3828 19V16.375H48.2695V19H43.3828ZM50.6836 19V16.375H54.6562V19H50.6836ZM44.0859 9.20312V6.57812H50.918V9.20312H44.0859ZM49.3594 4.78516C48.8047 4.78516 48.3477 4.60547 47.9883 4.24609C47.6289 3.88672 47.4492 3.42969 47.4492 2.875C47.4492 2.32031 47.6289 1.86328 47.9883 1.50391C48.3477 1.14453 48.8047 0.964844 49.3594 0.964844C49.9141 0.964844 50.3711 1.14453 50.7305 1.50391C51.0898 1.86328 51.2695 2.32031 51.2695 2.875C51.2695 3.42969 51.0898 3.88672 50.7305 4.24609C50.3711 4.60547 49.9141 4.78516 49.3594 4.78516ZM64.0664 19.2344C61.8633 19.2344 60.1602 18.6797 58.957 17.5703C57.7617 16.4531 57.1641 14.8516 57.1641 12.7656C57.1641 10.7344 57.7188 9.15625 58.8281 8.03125C59.9375 6.90625 61.5234 6.34375 63.5859 6.34375C64.8438 6.34375 65.918 6.58594 66.8086 7.07031C67.707 7.54688 68.3438 8.22266 68.7188 9.09766L66.5742 10.7734C66.2305 10.2188 65.7891 9.79297 65.25 9.49609C64.7188 9.19141 64.1328 9.03906 63.4922 9.03906C62.4297 9.03906 61.6016 9.35156 61.0078 9.97656C60.4141 10.6016 60.1172 11.4922 60.1172 12.6484C60.1172 13.9141 60.4805 14.8789 61.207 15.543C61.9414 16.207 62.9883 16.5391 64.3477 16.5391C64.918 16.5391 65.4844 16.5117 66.0469 16.457C66.6172 16.4023 67.1719 16.3281 67.7109 16.2344L68.0156 18.8828C67.3828 19.0234 66.7266 19.1172 66.0469 19.1641C65.3672 19.2109 64.707 19.2344 64.0664 19.2344ZM79.2656 19.2344C77.2266 19.2344 75.7539 18.8203 74.8477 17.9922C73.9414 17.1641 73.4883 15.8398 73.4883 14.0195V12.2031H76.3711V13.7852C76.3711 14.7461 76.6133 15.4453 77.0977 15.8828C77.5898 16.3203 78.3906 16.5391 79.5 16.5391C79.8672 16.5391 80.2617 16.5195 80.6836 16.4805C81.1055 16.4336 81.5859 16.375 82.125 16.3047L82.4062 18.9531C81.8828 19.0469 81.3672 19.1172 80.8594 19.1641C80.3594 19.2109 79.8281 19.2344 79.2656 19.2344ZM73.4883 13.0234V2.82812H76.3711V13.0234H73.4883ZM70.4531 9.20312V6.57812H81.9375V9.20312H70.4531ZM90.8438 19.2344C89.0859 19.2344 87.7188 18.6719 86.7422 17.5469C85.7734 16.4219 85.2891 14.8359 85.2891 12.7891C85.2891 10.7344 85.7734 9.14844 86.7422 8.03125C87.7188 6.90625 89.0859 6.34375 90.8438 6.34375C92.6094 6.34375 93.9766 6.90625 94.9453 8.03125C95.9141 9.14844 96.3984 10.7344 96.3984 12.7891C96.3984 14.8359 95.9141 16.4219 94.9453 17.5469C93.9766 18.6719 92.6094 19.2344 90.8438 19.2344ZM90.8438 16.5391C91.6719 16.5391 92.3086 16.2148 92.7539 15.5664C93.1992 14.9102 93.4219 13.9844 93.4219 12.7891C93.4219 11.5859 93.1953 10.6602 92.7422 10.0117C92.2969 9.36328 91.6641 9.03906 90.8438 9.03906C90.0234 9.03906 89.3867 9.36328 88.9336 10.0117C88.4883 10.6602 88.2656 11.5859 88.2656 12.7891C88.2656 13.9844 88.4883 14.9102 88.9336 15.5664C89.3867 16.2148 90.0234 16.5391 90.8438 16.5391ZM104.262 13.6562L103.535 9.53125H104.566C104.699 7.40625 105.789 6.34375 107.836 6.34375C109.055 6.34375 109.969 6.75 110.578 7.5625C111.188 8.375 111.492 9.60156 111.492 11.2422H108.609C108.609 10.4375 108.473 9.85938 108.199 9.50781C107.934 9.15625 107.504 8.98047 106.91 8.98047C106.02 8.98047 105.355 9.38672 104.918 10.1992C104.48 11.0117 104.262 12.1641 104.262 13.6562ZM98.6953 19V16.4922H107.227V19H98.6953ZM101.379 19V6.57812H103.793L104.262 10.1406V19H101.379ZM99.1641 9.08594V6.57812H103.629L103.863 9.08594H99.1641ZM120.164 19.2344C117.641 19.2344 115.746 18.5195 114.48 17.0898C113.223 15.6602 112.594 13.5156 112.594 10.6562C112.594 7.94531 113.246 5.84766 114.551 4.36328C115.863 2.87109 117.703 2.125 120.07 2.125C121.266 2.125 122.301 2.3125 123.176 2.6875C124.051 3.05469 124.719 3.58203 125.18 4.26953L123.316 6.30859C122.957 5.81641 122.504 5.43359 121.957 5.16016C121.418 4.88672 120.836 4.75 120.211 4.75C118.734 4.75 117.586 5.25391 116.766 6.26172C115.953 7.26953 115.547 8.69531 115.547 10.5391C115.547 12.5625 115.957 14.0781 116.777 15.0859C117.598 16.0938 118.82 16.5977 120.445 16.5977C121.188 16.5977 121.84 16.5273 122.402 16.3867C122.973 16.2383 123.438 16.1133 123.797 16.0117L124.828 18.5312C124.492 18.6328 123.902 18.7773 123.059 18.9648C122.215 19.1445 121.25 19.2344 120.164 19.2344ZM122.062 18.5312V10.5039H124.828V18.5312H122.062ZM119.086 13.1055V10.5039H124.758V13.1055H119.086ZM135.422 19.1172L135.199 15.4375L135.035 14.0547V11.3125C135.035 10.5859 134.75 10.0547 134.18 9.71875C133.609 9.375 132.758 9.1875 131.625 9.15625L128.531 9.07422L128.766 6.46094L131.391 6.49609C133.562 6.52734 135.176 6.97266 136.23 7.83203C137.285 8.68359 137.812 9.92969 137.812 11.5703V16.3984L139.688 16.6562V19L135.422 19.1172ZM131.145 19.2344C129.832 19.2344 128.812 18.9141 128.086 18.2734C127.367 17.6328 127.008 16.7266 127.008 15.5547C127.008 14.1953 127.492 13.1523 128.461 12.4258C129.43 11.6992 130.801 11.3359 132.574 11.3359C133.277 11.3359 133.895 11.375 134.426 11.4531C134.957 11.5312 135.465 11.6523 135.949 11.8164L135.434 13.9727C134.926 13.8555 134.453 13.7891 134.016 13.7734C133.578 13.75 133.121 13.7383 132.645 13.7383C130.801 13.7383 129.879 14.2812 129.879 15.3672C129.879 15.8438 130.039 16.207 130.359 16.457C130.688 16.707 131.16 16.832 131.777 16.832C132.496 16.832 133.098 16.7031 133.582 16.4453C134.066 16.1797 134.43 15.8477 134.672 15.4492C134.914 15.043 135.035 14.625 135.035 14.1953V13.1875L135.598 16.375H134.602L135.012 16C134.996 16.7188 134.828 17.3203 134.508 17.8047C134.195 18.2812 133.754 18.6406 133.184 18.8828C132.613 19.1172 131.934 19.2344 131.145 19.2344ZM145.301 19.2344C144.723 19.2344 144.148 19.2109 143.578 19.1641C143.016 19.125 142.441 19.0703 141.855 19L142.934 16.1992C143.348 16.3945 143.805 16.5117 144.305 16.5508C144.805 16.582 145.301 16.5977 145.793 16.5977C147.176 16.5977 148.242 16.1953 148.992 15.3906C149.75 14.5859 150.129 13.4453 150.129 11.9688C150.129 11.0156 149.91 10.2812 149.473 9.76562C149.043 9.24219 148.426 8.98047 147.621 8.98047C145.707 8.98047 144.75 9.99219 144.75 12.0156L144.023 8.82812H145.043C145.215 7.17188 146.211 6.34375 148.031 6.34375C149.633 6.34375 150.871 6.83203 151.746 7.80859C152.621 8.78516 153.059 10.1719 153.059 11.9688C153.059 14.2734 152.383 16.0625 151.031 17.3359C149.68 18.6016 147.77 19.2344 145.301 19.2344ZM141.855 19V1.42188H144.75V18.7891L141.855 19ZM160.512 13.6562L159.785 9.53125H160.816C160.949 7.40625 162.039 6.34375 164.086 6.34375C165.305 6.34375 166.219 6.75 166.828 7.5625C167.438 8.375 167.742 9.60156 167.742 11.2422H164.859C164.859 10.4375 164.723 9.85938 164.449 9.50781C164.184 9.15625 163.754 8.98047 163.16 8.98047C162.27 8.98047 161.605 9.38672 161.168 10.1992C160.73 11.0117 160.512 12.1641 160.512 13.6562ZM154.945 19V16.4922H163.477V19H154.945ZM157.629 19V6.57812H160.043L160.512 10.1406V19H157.629ZM155.414 9.08594V6.57812H159.879L160.113 9.08594H155.414ZM174.598 19V7.28125H177.48V19H174.598ZM169.945 19V16.375H174.832V19H169.945ZM177.246 19V16.375H181.219V19H177.246ZM170.648 9.20312V6.57812H177.48V9.20312H170.648ZM175.922 4.78516C175.367 4.78516 174.91 4.60547 174.551 4.24609C174.191 3.88672 174.012 3.42969 174.012 2.875C174.012 2.32031 174.191 1.86328 174.551 1.50391C174.91 1.14453 175.367 0.964844 175.922 0.964844C176.477 0.964844 176.934 1.14453 177.293 1.50391C177.652 1.86328 177.832 2.32031 177.832 2.875C177.832 3.42969 177.652 3.88672 177.293 4.24609C176.934 4.60547 176.477 4.78516 175.922 4.78516ZM190.301 19.2344C188.168 19.2344 186.52 18.6797 185.355 17.5703C184.191 16.4531 183.609 14.8516 183.609 12.7656C183.609 10.7344 184.102 9.15625 185.086 8.03125C186.078 6.90625 187.473 6.34375 189.27 6.34375C191.004 6.34375 192.344 6.85938 193.289 7.89062C194.242 8.92188 194.719 10.418 194.719 12.3789C194.719 12.9492 194.695 13.4844 194.648 13.9844H185.695V11.8984H191.953C191.953 10.9531 191.719 10.2266 191.25 9.71875C190.781 9.21094 190.129 8.95703 189.293 8.95703C188.379 8.95703 187.668 9.27734 187.16 9.91797C186.652 10.5586 186.398 11.4688 186.398 12.6484C186.398 13.9219 186.762 14.8945 187.488 15.5664C188.215 16.2305 189.246 16.5625 190.582 16.5625C191.129 16.5625 191.664 16.5352 192.188 16.4805C192.719 16.418 193.258 16.3359 193.805 16.2344L194.109 18.9062C193.344 19.0469 192.641 19.1367 192 19.1758C191.359 19.2148 190.793 19.2344 190.301 19.2344ZM205.195 19.2344C203.68 19.2344 202.586 18.8203 201.914 17.9922C201.25 17.1641 200.918 15.8398 200.918 14.0195V1.42188H203.801V13.9023C203.801 14.4727 203.859 14.9414 203.977 15.3086C204.094 15.668 204.316 15.9336 204.645 16.1055C204.98 16.2773 205.477 16.3633 206.133 16.3633C206.805 16.3633 207.656 16.2148 208.688 15.918L209.016 18.7422C208.367 18.9141 207.738 19.0391 207.129 19.1172C206.527 19.1953 205.883 19.2344 205.195 19.2344ZM197.344 4.04688V1.42188H201.129V4.04688H197.344Z" fill="white"/>
</svg>
