<svg width="995" height="730" viewBox="0 0 995 730" fill="none" xmlns="http://www.w3.org/2000/svg">
<g clip-path="url(#clip0_1_30)">
<rect width="729.199" height="993.838" transform="translate(994.808 0.103516) rotate(90)" fill="#131126"/>
<g filter="url(#filter0_f_1_30)">
<path d="M300.026 269.598C356.805 144.417 504.312 88.9664 629.493 145.745L664.385 161.571C789.565 218.349 845.016 365.857 788.238 491.037L772.872 524.915C716.094 650.095 568.587 705.546 443.406 648.768L408.514 632.942C283.333 576.163 227.882 428.656 284.66 303.475L300.026 269.598Z" fill="url(#paint0_radial_1_30)"/>
</g>
<g style="mix-blend-mode:overlay" filter="url(#filter1_f_1_30)">
<path d="M261.412 707.29C167.087 714.352 84.8698 643.256 77.8075 548.932C70.7451 454.607 141.459 372.06 235.783 364.998C330.108 357.936 412.325 429.032 419.388 523.357C426.45 617.681 355.736 700.228 261.412 707.29Z" fill="url(#paint1_radial_1_30)"/>
</g>
<g style="mix-blend-mode:hue" filter="url(#filter2_f_1_30)">
<path d="M577.2 655.007C466.558 663.291 370.118 579.896 361.834 469.254C353.55 358.612 436.496 261.786 547.138 253.502C657.78 245.218 754.22 328.613 762.504 439.255C770.788 549.897 687.842 646.723 577.2 655.007Z" fill="url(#paint2_radial_1_30)"/>
</g>
<g style="mix-blend-mode:lighten" filter="url(#filter3_f_1_30)">
<rect x="185.802" y="292.783" width="463.818" height="463.279" rx="231.639" transform="rotate(-2.76038 185.802 292.783)" fill="url(#paint3_radial_1_30)"/>
</g>
<g style="mix-blend-mode:lighten" filter="url(#filter4_f_1_30)">
<rect x="203.573" y="434.464" width="372.965" height="372.531" rx="186.265" transform="rotate(-40.357 203.573 434.464)" fill="url(#paint4_radial_1_30)"/>
</g>
<g style="mix-blend-mode:overlay" filter="url(#filter5_f_1_30)">
<path d="M422.775 178.703C457.403 106.81 544.026 76.7309 615.919 111.359C687.812 145.986 718.293 232.469 683.665 304.362C649.037 376.255 562.414 406.334 490.521 371.706C418.628 337.078 388.148 250.596 422.775 178.703Z" fill="url(#paint5_radial_1_30)"/>
</g>
<g style="mix-blend-mode:lighten" filter="url(#filter6_f_1_30)">
<path d="M451.41 169.256C521.564 159.393 586.468 208.533 596.331 278.687C606.194 348.841 557.356 413.973 487.202 423.836C417.047 433.699 352.144 384.559 342.28 314.404C332.417 244.25 381.256 179.119 451.41 169.256Z" fill="url(#paint6_radial_1_30)"/>
</g>
</g>
<defs>
<filter id="filter0_f_1_30" x="135.233" y="-3.68254" width="802.432" height="801.878" filterUnits="userSpaceOnUse" color-interpolation-filters="sRGB">
<feFlood flood-opacity="0" result="BackgroundImageFix"/>
<feBlend mode="normal" in="SourceGraphic" in2="BackgroundImageFix" result="shape"/>
<feGaussianBlur stdDeviation="63.5705" result="effect1_foregroundBlur_1_30"/>
</filter>
<filter id="filter1_f_1_30" x="-47.1214" y="240.072" width="591.438" height="592.145" filterUnits="userSpaceOnUse" color-interpolation-filters="sRGB">
<feFlood flood-opacity="0" result="BackgroundImageFix"/>
<feBlend mode="normal" in="SourceGraphic" in2="BackgroundImageFix" result="shape"/>
<feGaussianBlur stdDeviation="62.2213" result="effect1_foregroundBlur_1_30"/>
</filter>
<filter id="filter2_f_1_30" x="238.022" y="129.692" width="648.295" height="649.124" filterUnits="userSpaceOnUse" color-interpolation-filters="sRGB">
<feFlood flood-opacity="0" result="BackgroundImageFix"/>
<feBlend mode="normal" in="SourceGraphic" in2="BackgroundImageFix" result="shape"/>
<feGaussianBlur stdDeviation="61.6211" result="effect1_foregroundBlur_1_30"/>
</filter>
<filter id="filter3_f_1_30" x="76.2868" y="160.942" width="704.623" height="704.085" filterUnits="userSpaceOnUse" color-interpolation-filters="sRGB">
<feFlood flood-opacity="0" result="BackgroundImageFix"/>
<feBlend mode="normal" in="SourceGraphic" in2="BackgroundImageFix" result="shape"/>
<feGaussianBlur stdDeviation="60.1991" result="effect1_foregroundBlur_1_30"/>
</filter>
<filter id="filter4_f_1_30" x="159.529" y="148.92" width="613.527" height="613.453" filterUnits="userSpaceOnUse" color-interpolation-filters="sRGB">
<feFlood flood-opacity="0" result="BackgroundImageFix"/>
<feBlend mode="normal" in="SourceGraphic" in2="BackgroundImageFix" result="shape"/>
<feGaussianBlur stdDeviation="60.1991" result="effect1_foregroundBlur_1_30"/>
</filter>
<filter id="filter5_f_1_30" x="303.498" y="-7.99598" width="499.444" height="499.057" filterUnits="userSpaceOnUse" color-interpolation-filters="sRGB">
<feFlood flood-opacity="0" result="BackgroundImageFix"/>
<feBlend mode="normal" in="SourceGraphic" in2="BackgroundImageFix" result="shape"/>
<feGaussianBlur stdDeviation="52.4916" result="effect1_foregroundBlur_1_30"/>
</filter>
<filter id="filter6_f_1_30" x="219.481" y="46.4629" width="499.649" height="500.166" filterUnits="userSpaceOnUse" color-interpolation-filters="sRGB">
<feFlood flood-opacity="0" result="BackgroundImageFix"/>
<feBlend mode="normal" in="SourceGraphic" in2="BackgroundImageFix" result="shape"/>
<feGaussianBlur stdDeviation="60.7666" result="effect1_foregroundBlur_1_30"/>
</filter>
<radialGradient id="paint0_radial_1_30" cx="0" cy="0" r="1" gradientUnits="userSpaceOnUse" gradientTransform="translate(528.107 301.403) rotate(106.747) scale(354.488 355.226)">
<stop stop-color="#4BD4FF"/>
<stop offset="1" stop-color="#D04BFF" stop-opacity="0"/>
</radialGradient>
<radialGradient id="paint1_radial_1_30" cx="0" cy="0" r="1" gradientUnits="userSpaceOnUse" gradientTransform="translate(277.622 602.182) rotate(-29.0752) scale(162.206 162.544)">
<stop stop-color="#1B07FF"/>
<stop offset="1" stop-color="#FF9898"/>
</radialGradient>
<radialGradient id="paint2_radial_1_30" cx="0" cy="0" r="1" gradientUnits="userSpaceOnUse" gradientTransform="translate(596.215 531.716) rotate(-29.0752) scale(190.266 190.662)">
<stop stop-color="#C7BEFF"/>
<stop offset="1" stop-color="#9BFFAB"/>
</radialGradient>
<radialGradient id="paint3_radial_1_30" cx="0" cy="0" r="1" gradientUnits="userSpaceOnUse" gradientTransform="translate(510.365 420.616) rotate(83.176) scale(217.733 255.29)">
<stop offset="0.447917" stop-color="#FF4D4D"/>
<stop offset="1" stop-color="#FF0000" stop-opacity="0"/>
</radialGradient>
<radialGradient id="paint4_radial_1_30" cx="0" cy="0" r="1" gradientUnits="userSpaceOnUse" gradientTransform="translate(464.559 537.258) rotate(75.3715) scale(139.444 115.063)">
<stop stop-color="#64FFFF"/>
<stop offset="0.572917" stop-color="#00FFC2" stop-opacity="0.58"/>
<stop offset="1" stop-color="#00FFC2" stop-opacity="0"/>
</radialGradient>
<radialGradient id="paint5_radial_1_30" cx="0" cy="0" r="1" gradientUnits="userSpaceOnUse" gradientTransform="translate(492.73 234.882) rotate(90.9248) scale(136.842 137.127)">
<stop offset="0.197917" stop-color="#FFD337"/>
<stop offset="1" stop-color="#FFFAE1" stop-opacity="0.42"/>
</radialGradient>
<radialGradient id="paint6_radial_1_30" cx="0" cy="0" r="1" gradientUnits="userSpaceOnUse" gradientTransform="translate(469.306 296.546) rotate(171.997) scale(128.275 128.542)">
<stop stop-color="#7E5EFF"/>
<stop offset="1" stop-color="#CD03FF" stop-opacity="0.6"/>
</radialGradient>
<clipPath id="clip0_1_30">
<rect width="729.199" height="993.838" fill="white" transform="translate(994.808 0.103516) rotate(90)"/>
</clipPath>
</defs>
</svg>
